<svg width="127" height="131" viewBox="0 0 127 131" fill="none" xmlns="http://www.w3.org/2000/svg">
<g filter="url(#filter0_bd_1_5)">
<ellipse cx="63" cy="61.5" rx="59" ry="61.5" fill="#934C4C"/>
<path d="M121 61.5C121 94.9527 94.9938 122 63 122C31.0062 122 5 94.9527 5 61.5C5 28.0473 31.0062 1 63 1C94.9938 1 121 28.0473 121 61.5Z" stroke="#FF0000" stroke-width="2"/>
</g>
<g filter="url(#filter1_b_1_5)">
<path d="M56.2004 56V45.0909H62.7416V46.2628H57.5214V49.9489H62.2516V51.1207H57.5214V56H56.2004ZM65.0041 56V45.0909H66.3252V54.8281H71.3962V56H65.0041ZM17.2362 74H15.8513L19.857 63.0909H21.2206L25.2263 74H23.8414L20.5814 64.8168H20.4962L17.2362 74ZM17.7476 69.7386H23.33V70.9105H17.7476V69.7386ZM31.1017 63.0909H32.4227V70.8892C32.4227 71.5852 32.2948 72.1765 32.0392 72.663C31.7835 73.1495 31.423 73.5188 30.9578 73.771C30.4926 74.0231 29.944 74.1491 29.3119 74.1491C28.7153 74.1491 28.1844 74.0408 27.7192 73.8242C27.254 73.604 26.8882 73.2915 26.6219 72.8867C26.3556 72.4819 26.2224 72.0007 26.2224 71.4432H27.5221C27.5221 71.7521 27.5985 72.022 27.7512 72.2528C27.9074 72.4801 28.1205 72.6577 28.3904 72.7855C28.6602 72.9134 28.9674 72.9773 29.3119 72.9773C29.6919 72.9773 30.015 72.8974 30.2813 72.7376C30.5477 72.5778 30.7501 72.3434 30.8886 72.0344C31.0306 71.7219 31.1017 71.3402 31.1017 70.8892V63.0909ZM35.5175 74H34.1325L38.1382 63.0909H39.5019L43.5075 74H42.1226L38.8627 64.8168H38.7774L35.5175 74ZM36.0289 69.7386H41.6112V70.9105H36.0289V69.7386ZM45.846 63.0909L48.6585 67.6293H48.7437L51.5562 63.0909H53.1116L49.6812 68.5455L53.1116 74H51.5562L48.7437 69.5469H48.6585L45.846 74H44.2906L47.8062 68.5455L44.2906 63.0909H45.846ZM65.0154 65.8182C64.9515 65.2784 64.6923 64.8594 64.2377 64.5611C63.7832 64.2628 63.2257 64.1136 62.5652 64.1136C62.0822 64.1136 61.6596 64.1918 61.2974 64.348C60.9387 64.5043 60.6582 64.7191 60.4558 64.9925C60.2569 65.266 60.1575 65.5767 60.1575 65.9247C60.1575 66.2159 60.2267 66.4663 60.3652 66.6758C60.5073 66.8817 60.6884 67.054 60.9086 67.1925C61.1287 67.3274 61.3596 67.4393 61.601 67.5281C61.8425 67.6133 62.0645 67.6825 62.2669 67.7358L63.3748 68.0341C63.6589 68.1087 63.975 68.2116 64.323 68.343C64.6745 68.4744 65.0101 68.6538 65.3297 68.881C65.6529 69.1048 65.9192 69.3924 66.1287 69.744C66.3382 70.0955 66.443 70.527 66.443 71.0384C66.443 71.6278 66.2885 72.1605 65.9796 72.6364C65.6742 73.1122 65.2267 73.4904 64.6373 73.771C64.0513 74.0515 63.3393 74.1918 62.5012 74.1918C61.72 74.1918 61.0435 74.0657 60.4718 73.8136C59.9036 73.5614 59.4561 73.2099 59.1294 72.7589C58.8063 72.3079 58.6234 71.7841 58.5808 71.1875H59.9444C59.9799 71.5994 60.1184 71.9403 60.3599 72.2102C60.6049 72.4766 60.9139 72.6754 61.2868 72.8068C61.6632 72.9347 62.068 72.9986 62.5012 72.9986C63.0055 72.9986 63.4583 72.9169 63.8596 72.7536C64.2608 72.5866 64.5787 72.3558 64.813 72.0611C65.0474 71.7628 65.1646 71.4148 65.1646 71.017C65.1646 70.6548 65.0634 70.3601 64.861 70.1328C64.6586 69.9055 64.3922 69.7209 64.062 69.5788C63.7317 69.4368 63.3748 69.3125 62.9913 69.206L61.649 68.8224C60.7967 68.5774 60.122 68.2276 59.6248 67.7731C59.1277 67.3185 58.8791 66.7237 58.8791 65.9886C58.8791 65.3778 59.0442 64.8452 59.3745 64.3906C59.7083 63.9325 60.1557 63.5774 60.7168 63.3253C61.2814 63.0696 61.9118 62.9418 62.6078 62.9418C63.3109 62.9418 63.9359 63.0678 64.4828 63.32C65.0297 63.5685 65.4629 63.9094 65.7825 64.3427C66.1056 64.7759 66.2761 65.2678 66.2939 65.8182H65.0154ZM69.936 63.0909V74H68.615V63.0909H69.936ZM72.5847 63.0909H74.1614L77.8688 72.1463H77.9966L81.704 63.0909H83.2807V74H82.0449V65.7116H81.9384L78.5293 74H77.3361L73.927 65.7116H73.8205V74H72.5847V63.0909ZM85.9294 74V63.0909H89.6155C90.4713 63.0909 91.1709 63.2454 91.7142 63.5543C92.2611 63.8597 92.6659 64.2734 92.9287 64.7955C93.1915 65.3175 93.3229 65.8999 93.3229 66.5426C93.3229 67.1854 93.1915 67.7695 92.9287 68.2951C92.6695 68.8207 92.2682 69.2397 91.7249 69.5522C91.1816 69.8612 90.4855 70.0156 89.6368 70.0156H86.9948V68.8438H89.5942C90.1801 68.8438 90.6507 68.7425 91.0058 68.5401C91.3609 68.3377 91.6183 68.0643 91.7781 67.7198C91.9415 67.3718 92.0232 66.9794 92.0232 66.5426C92.0232 66.1058 91.9415 65.7152 91.7781 65.3707C91.6183 65.0263 91.3591 64.7564 91.0004 64.5611C90.6418 64.3622 90.1659 64.2628 89.5729 64.2628H87.2504V74H85.9294ZM95.4509 74V63.0909H96.7719V72.8281H101.843V74H95.4509ZM103.888 74V63.0909H110.472V64.2628H105.209V67.9489H110.131V69.1207H105.209V72.8281H110.557V74H103.888Z" fill="black"/>
<path d="M56.2004 56H55.7004V56.5H56.2004V56ZM56.2004 45.0909V44.5909H55.7004V45.0909H56.2004ZM62.7416 45.0909H63.2416V44.5909H62.7416V45.0909ZM62.7416 46.2628V46.7628H63.2416V46.2628H62.7416ZM57.5214 46.2628V45.7628H57.0214V46.2628H57.5214ZM57.5214 49.9489H57.0214V50.4489H57.5214V49.9489ZM62.2516 49.9489H62.7516V49.4489H62.2516V49.9489ZM62.2516 51.1207V51.6207H62.7516V51.1207H62.2516ZM57.5214 51.1207V50.6207H57.0214V51.1207H57.5214ZM57.5214 56V56.5H58.0214V56H57.5214ZM56.7004 56V45.0909H55.7004V56H56.7004ZM56.2004 45.5909H62.7416V44.5909H56.2004V45.5909ZM62.2416 45.0909V46.2628H63.2416V45.0909H62.2416ZM62.7416 45.7628H57.5214V46.7628H62.7416V45.7628ZM57.0214 46.2628V49.9489H58.0214V46.2628H57.0214ZM57.5214 50.4489H62.2516V49.4489H57.5214V50.4489ZM61.7516 49.9489V51.1207H62.7516V49.9489H61.7516ZM62.2516 50.6207H57.5214V51.6207H62.2516V50.6207ZM57.0214 51.1207V56H58.0214V51.1207H57.0214ZM57.5214 55.5H56.2004V56.5H57.5214V55.5ZM65.0041 56H64.5041V56.5H65.0041V56ZM65.0041 45.0909V44.5909H64.5041V45.0909H65.0041ZM66.3252 45.0909H66.8252V44.5909H66.3252V45.0909ZM66.3252 54.8281H65.8252V55.3281H66.3252V54.8281ZM71.3962 54.8281H71.8962V54.3281H71.3962V54.8281ZM71.3962 56V56.5H71.8962V56H71.3962ZM65.5041 56V45.0909H64.5041V56H65.5041ZM65.0041 45.5909H66.3252V44.5909H65.0041V45.5909ZM65.8252 45.0909V54.8281H66.8252V45.0909H65.8252ZM66.3252 55.3281H71.3962V54.3281H66.3252V55.3281ZM70.8962 54.8281V56H71.8962V54.8281H70.8962ZM71.3962 55.5H65.0041V56.5H71.3962V55.5ZM17.2362 74V74.5H17.5893L17.7074 74.1673L17.2362 74ZM15.8513 74L15.3819 73.8277L15.1351 74.5H15.8513V74ZM19.857 63.0909V62.5909H19.5079L19.3876 62.9186L19.857 63.0909ZM21.2206 63.0909L21.69 62.9186L21.5697 62.5909H21.2206V63.0909ZM25.2263 74V74.5H25.9425L25.6957 73.8277L25.2263 74ZM23.8414 74L23.3702 74.1673L23.4883 74.5H23.8414V74ZM20.5814 64.8168L21.0526 64.6495L20.9345 64.3168H20.5814V64.8168ZM20.4962 64.8168V64.3168H20.1431L20.025 64.6495L20.4962 64.8168ZM17.7476 69.7386V69.2386H17.2476V69.7386H17.7476ZM23.33 69.7386H23.83V69.2386H23.33V69.7386ZM23.33 70.9105V71.4105H23.83V70.9105H23.33ZM17.7476 70.9105H17.2476V71.4105H17.7476V70.9105ZM17.2362 73.5H15.8513V74.5H17.2362V73.5ZM16.3207 74.1723L20.3263 63.2633L19.3876 62.9186L15.3819 73.8277L16.3207 74.1723ZM19.857 63.5909H21.2206V62.5909H19.857V63.5909ZM20.7513 63.2633L24.7569 74.1723L25.6957 73.8277L21.69 62.9186L20.7513 63.2633ZM25.2263 73.5H23.8414V74.5H25.2263V73.5ZM24.3125 73.8327L21.0526 64.6495L20.1102 64.984L23.3702 74.1673L24.3125 73.8327ZM20.5814 64.3168H20.4962V65.3168H20.5814V64.3168ZM20.025 64.6495L16.765 73.8327L17.7074 74.1673L20.9674 64.984L20.025 64.6495ZM17.7476 70.2386H23.33V69.2386H17.7476V70.2386ZM22.83 69.7386V70.9105H23.83V69.7386H22.83ZM23.33 70.4105H17.7476V71.4105H23.33V70.4105ZM18.2476 70.9105V69.7386H17.2476V70.9105H18.2476ZM31.1017 63.0909V62.5909H30.6017V63.0909H31.1017ZM32.4227 63.0909H32.9227V62.5909H32.4227V63.0909ZM32.0392 72.663L32.4818 72.8956L32.4818 72.8956L32.0392 72.663ZM30.9578 73.771L31.1961 74.2105L31.1961 74.2105L30.9578 73.771ZM27.7192 73.8242L27.5053 74.2762L27.5081 74.2775L27.7192 73.8242ZM26.6219 72.8867L26.2042 73.1615L26.2042 73.1615L26.6219 72.8867ZM26.2224 71.4432V70.9432H25.7224V71.4432H26.2224ZM27.5221 71.4432H28.0221V70.9432H27.5221V71.4432ZM27.7512 72.2528L27.3341 72.5288L27.3391 72.5361L27.7512 72.2528ZM28.3904 72.7855L28.6044 72.3336L28.6044 72.3336L28.3904 72.7855ZM30.2813 72.7376L30.0241 72.3088L30.0241 72.3088L30.2813 72.7376ZM30.8886 72.0344L30.4334 71.8275L30.4323 71.8299L30.8886 72.0344ZM31.1017 63.5909H32.4227V62.5909H31.1017V63.5909ZM31.9227 63.0909V70.8892H32.9227V63.0909H31.9227ZM31.9227 70.8892C31.9227 71.5253 31.8058 72.0322 31.5966 72.4304L32.4818 72.8956C32.7839 72.3208 32.9227 71.6452 32.9227 70.8892H31.9227ZM31.5966 72.4304C31.3851 72.8328 31.0942 73.1283 30.7196 73.3314L31.1961 74.2105C31.7519 73.9093 32.1819 73.4662 32.4818 72.8956L31.5966 72.4304ZM30.7196 73.3314C30.3405 73.5368 29.8769 73.6491 29.3119 73.6491V74.6491C30.011 74.6491 30.6447 74.5094 31.1961 74.2105L30.7196 73.3314ZM29.3119 73.6491C28.7764 73.6491 28.3194 73.5522 27.9303 73.371L27.5081 74.2775C28.0493 74.5295 28.6542 74.6491 29.3119 74.6491V73.6491ZM27.9331 73.3723C27.5454 73.1888 27.2524 72.9353 27.0396 72.6119L26.2042 73.1615C26.5241 73.6478 26.9626 74.0193 27.5053 74.2762L27.9331 73.3723ZM27.0396 72.6119C26.8347 72.3004 26.7224 71.9181 26.7224 71.4432H25.7224C25.7224 72.0833 25.8764 72.6633 26.2042 73.1615L27.0396 72.6119ZM26.2224 71.9432H27.5221V70.9432H26.2224V71.9432ZM27.0221 71.4432C27.0221 71.8384 27.1211 72.2067 27.3341 72.5287L28.1682 71.977C28.0758 71.8373 28.0221 71.6658 28.0221 71.4432H27.0221ZM27.3391 72.5361C27.5495 72.842 27.8335 73.075 28.1763 73.2374L28.6044 72.3336C28.4074 72.2403 28.2654 72.1182 28.1632 71.9696L27.3391 72.5361ZM28.1763 73.2374C28.5226 73.4014 28.9047 73.4773 29.3119 73.4773V72.4773C29.0301 72.4773 28.7978 72.4253 28.6044 72.3336L28.1763 73.2374ZM29.3119 73.4773C29.7623 73.4773 30.1789 73.3821 30.5386 73.1663L30.0241 72.3088C29.8511 72.4126 29.6214 72.4773 29.3119 72.4773V73.4773ZM30.5386 73.1663C30.9006 72.9491 31.1685 72.6324 31.3448 72.239L30.4323 71.8299C30.3317 72.0544 30.1948 72.2064 30.0241 72.3088L30.5386 73.1663ZM31.3438 72.2413C31.5231 71.8469 31.6017 71.3902 31.6017 70.8892H30.6017C30.6017 71.2902 30.5382 71.597 30.4334 71.8275L31.3438 72.2413ZM31.6017 70.8892V63.0909H30.6017V70.8892H31.6017ZM35.5175 74V74.5H35.8706L35.9887 74.1673L35.5175 74ZM34.1325 74L33.6632 73.8277L33.4163 74.5H34.1325V74ZM38.1382 63.0909V62.5909H37.7892L37.6689 62.9186L38.1382 63.0909ZM39.5019 63.0909L39.9712 62.9186L39.8509 62.5909H39.5019V63.0909ZM43.5075 74V74.5H44.2238L43.9769 73.8277L43.5075 74ZM42.1226 74L41.6514 74.1673L41.7695 74.5H42.1226V74ZM38.8627 64.8168L39.3339 64.6495L39.2157 64.3168H38.8627V64.8168ZM38.7774 64.8168V64.3168H38.4244L38.3062 64.6495L38.7774 64.8168ZM36.0289 69.7386V69.2386H35.5289V69.7386H36.0289ZM41.6112 69.7386H42.1112V69.2386H41.6112V69.7386ZM41.6112 70.9105V71.4105H42.1112V70.9105H41.6112ZM36.0289 70.9105H35.5289V71.4105H36.0289V70.9105ZM35.5175 73.5H34.1325V74.5H35.5175V73.5ZM34.6019 74.1723L38.6076 63.2633L37.6689 62.9186L33.6632 73.8277L34.6019 74.1723ZM38.1382 63.5909H39.5019V62.5909H38.1382V63.5909ZM39.0325 63.2633L43.0382 74.1723L43.9769 73.8277L39.9712 62.9186L39.0325 63.2633ZM43.5075 73.5H42.1226V74.5H43.5075V73.5ZM42.5938 73.8327L39.3339 64.6495L38.3915 64.984L41.6514 74.1673L42.5938 73.8327ZM38.8627 64.3168H38.7774V65.3168H38.8627V64.3168ZM38.3062 64.6495L35.0463 73.8327L35.9887 74.1673L39.2486 64.984L38.3062 64.6495ZM36.0289 70.2386H41.6112V69.2386H36.0289V70.2386ZM41.1112 69.7386V70.9105H42.1112V69.7386H41.1112ZM41.6112 70.4105H36.0289V71.4105H41.6112V70.4105ZM36.5289 70.9105V69.7386H35.5289V70.9105H36.5289ZM45.846 63.0909L46.271 62.8275L46.1243 62.5909H45.846V63.0909ZM48.6585 67.6293L48.2335 67.8926L48.3801 68.1293H48.6585V67.6293ZM48.7437 67.6293V68.1293H49.0221L49.1687 67.8926L48.7437 67.6293ZM51.5562 63.0909V62.5909H51.2778L51.1312 62.8275L51.5562 63.0909ZM53.1116 63.0909L53.5348 63.3571L54.0167 62.5909H53.1116V63.0909ZM49.6812 68.5455L49.2579 68.2793L49.0905 68.5455L49.2579 68.8116L49.6812 68.5455ZM53.1116 74V74.5H54.0167L53.5348 73.7338L53.1116 74ZM51.5562 74L51.1335 74.267L51.2806 74.5H51.5562V74ZM48.7437 69.5469L49.1664 69.2799L49.0193 69.0469H48.7437V69.5469ZM48.6585 69.5469V69.0469H48.3829L48.2357 69.2799L48.6585 69.5469ZM45.846 74V74.5H46.1216L46.2687 74.267L45.846 74ZM44.2906 74L43.8703 73.7291L43.3734 74.5H44.2906V74ZM47.8062 68.5455L48.2265 68.8163L48.4011 68.5455L48.2265 68.2746L47.8062 68.5455ZM44.2906 63.0909V62.5909H43.3734L43.8703 63.3618L44.2906 63.0909ZM45.421 63.3543L48.2335 67.8926L49.0835 67.3659L46.271 62.8275L45.421 63.3543ZM48.6585 68.1293H48.7437V67.1293H48.6585V68.1293ZM49.1687 67.8926L51.9812 63.3543L51.1312 62.8275L48.3187 67.3659L49.1687 67.8926ZM51.5562 63.5909H53.1116V62.5909H51.5562V63.5909ZM52.6883 62.8247L49.2579 68.2793L50.1045 68.8116L53.5348 63.3571L52.6883 62.8247ZM49.2579 68.8116L52.6883 74.2662L53.5348 73.7338L50.1045 68.2793L49.2579 68.8116ZM53.1116 73.5H51.5562V74.5H53.1116V73.5ZM51.9789 73.733L49.1664 69.2799L48.321 69.8139L51.1335 74.267L51.9789 73.733ZM48.7437 69.0469H48.6585V70.0469H48.7437V69.0469ZM48.2357 69.2799L45.4232 73.733L46.2687 74.267L49.0812 69.8139L48.2357 69.2799ZM45.846 73.5H44.2906V74.5H45.846V73.5ZM44.7108 74.2709L48.2265 68.8163L47.3859 68.2746L43.8703 73.7291L44.7108 74.2709ZM48.2265 68.2746L44.7108 62.82L43.8703 63.3618L47.3859 68.8163L48.2265 68.2746ZM44.2906 63.5909H45.846V62.5909H44.2906V63.5909ZM65.0154 65.8182L64.5189 65.877L64.5712 66.3182H65.0154V65.8182ZM64.2377 64.5611L63.9634 64.9791L63.9634 64.9791L64.2377 64.5611ZM61.2974 64.348L61.0994 63.8889L61.0977 63.8896L61.2974 64.348ZM60.4558 64.9925L60.0539 64.695L60.0514 64.6985L60.4558 64.9925ZM60.3652 66.6758L59.948 66.9516L59.9536 66.9596L60.3652 66.6758ZM60.9086 67.1925L60.6423 67.6157L60.6473 67.6188L60.9086 67.1925ZM61.601 67.5281L61.4285 67.9974L61.4346 67.9995L61.601 67.5281ZM62.2669 67.7358L62.3969 67.253L62.3941 67.2523L62.2669 67.7358ZM63.3748 68.0341L63.2448 68.5169L63.2479 68.5177L63.3748 68.0341ZM64.323 68.343L64.1464 68.8108L64.1479 68.8114L64.323 68.343ZM65.3297 68.881L65.0399 69.2885L65.0451 69.2921L65.3297 68.881ZM66.1287 69.744L66.5582 69.488L66.5582 69.488L66.1287 69.744ZM65.9796 72.6364L65.5602 72.3641L65.5588 72.3663L65.9796 72.6364ZM64.6373 73.771L64.4224 73.3195L64.4213 73.32L64.6373 73.771ZM60.4718 73.8136L60.269 74.2706L60.27 74.2711L60.4718 73.8136ZM59.1294 72.7589L58.723 73.0501L58.7245 73.0522L59.1294 72.7589ZM58.5808 71.1875V70.6875H58.0438L58.0821 71.2231L58.5808 71.1875ZM59.9444 71.1875L60.4426 71.1446L60.4032 70.6875H59.9444V71.1875ZM60.3599 72.2102L59.9873 72.5437L59.9919 72.5488L60.3599 72.2102ZM61.2868 72.8068L61.1206 73.2784L61.126 73.2803L61.2868 72.8068ZM63.8596 72.7536L64.0481 73.2167L64.0516 73.2152L63.8596 72.7536ZM64.813 72.0611L65.2044 72.3723L65.2062 72.37L64.813 72.0611ZM64.861 70.1328L65.2344 69.8003L65.2344 69.8003L64.861 70.1328ZM64.062 69.5788L63.8644 70.0382L63.8644 70.0382L64.062 69.5788ZM62.9913 69.206L62.8539 69.6867L62.8575 69.6877L62.9913 69.206ZM61.649 68.8224L61.5108 69.303L61.5116 69.3032L61.649 68.8224ZM59.6248 67.7731L59.2874 68.1421L59.2874 68.1421L59.6248 67.7731ZM59.3745 64.3906L58.9704 64.0962L58.97 64.0967L59.3745 64.3906ZM60.7168 63.3253L60.9217 63.7814L60.9231 63.7808L60.7168 63.3253ZM64.4828 63.32L64.2734 63.774L64.2759 63.7751L64.4828 63.32ZM65.7825 64.3427L65.3801 64.6395L65.3817 64.6416L65.7825 64.3427ZM66.2939 65.8182V66.3182H66.8102L66.7936 65.8021L66.2939 65.8182ZM65.512 65.7594C65.4307 65.0729 65.0901 64.5224 64.5121 64.1431L63.9634 64.9791C64.2945 65.1964 64.4724 65.4839 64.5189 65.877L65.512 65.7594ZM64.5121 64.1431C63.96 63.7808 63.302 63.6136 62.5652 63.6136V64.6136C63.1493 64.6136 63.6064 64.7448 63.9634 64.9791L64.5121 64.1431ZM62.5652 63.6136C62.029 63.6136 61.5365 63.7003 61.0994 63.8889L61.4955 64.8071C61.7828 64.6832 62.1354 64.6136 62.5652 64.6136V63.6136ZM61.0977 63.8896C60.6709 64.0755 60.3159 64.3412 60.0539 64.6951L60.8577 65.29C61.0006 65.097 61.2066 64.933 61.4971 64.8064L61.0977 63.8896ZM60.0514 64.6985C59.7885 65.06 59.6575 65.4743 59.6575 65.9247H60.6575C60.6575 65.6791 60.7254 65.472 60.8602 65.2866L60.0514 64.6985ZM59.6575 65.9247C59.6575 66.2979 59.7474 66.6478 59.9481 66.9515L60.7823 66.4001C60.7061 66.2847 60.6575 66.1339 60.6575 65.9247H59.6575ZM59.9536 66.9596C60.1357 67.2237 60.3671 67.4426 60.6423 67.6157L61.1748 66.7692C61.0097 66.6654 60.8789 66.5398 60.7768 66.3919L59.9536 66.9596ZM60.6473 67.6188C60.8954 67.7709 61.156 67.8972 61.4285 67.9973L61.7736 67.0588C61.5631 66.9814 61.362 66.884 61.1698 66.7662L60.6473 67.6188ZM61.4346 67.9995C61.6863 68.0884 61.9215 68.1619 62.1396 68.2193L62.3941 67.2523C62.2074 67.2031 61.9988 67.1382 61.7674 67.0566L61.4346 67.9995ZM62.1369 68.2186L63.2448 68.5169L63.5048 67.5513L62.3969 67.253L62.1369 68.2186ZM63.2479 68.5177C63.5114 68.5869 63.8106 68.684 64.1464 68.8108L64.4996 67.8753C64.1394 67.7393 63.8064 67.6304 63.5018 67.5505L63.2479 68.5177ZM64.1479 68.8114C64.457 68.9269 64.7542 69.0853 65.04 69.2885L65.6195 68.4736C65.266 68.2222 64.8921 68.022 64.498 67.8747L64.1479 68.8114ZM65.0451 69.2921C65.307 69.4734 65.5248 69.7073 65.6992 69.9999L66.5582 69.488C66.3136 69.0775 65.9988 68.7361 65.6143 68.4699L65.0451 69.2921ZM65.6992 69.9999C65.8524 70.257 65.943 70.5948 65.943 71.0384H66.943C66.943 70.4592 66.8241 69.9341 66.5582 69.488L65.6992 69.9999ZM65.943 71.0384C65.943 71.5352 65.8144 71.9726 65.5602 72.3641L66.3989 72.9086C66.7626 72.3485 66.943 71.7205 66.943 71.0384H65.943ZM65.5588 72.3663C65.3112 72.7521 64.9409 73.0727 64.4224 73.3195L64.8521 74.2224C65.5125 73.9081 66.0372 73.4723 66.4004 72.9064L65.5588 72.3663ZM64.4213 73.32C63.9194 73.5603 63.2855 73.6918 62.5012 73.6918V74.6918C63.3931 74.6918 64.1832 74.5427 64.8532 74.2219L64.4213 73.32ZM62.5012 73.6918C61.7726 73.6918 61.1679 73.5741 60.6735 73.3561L60.27 74.2711C60.9191 74.5573 61.6674 74.6918 62.5012 74.6918V73.6918ZM60.6746 73.3565C60.1774 73.1359 59.8035 72.8371 59.5344 72.4656L58.7245 73.0522C59.1088 73.5827 59.6297 73.9869 60.269 74.2706L60.6746 73.3565ZM59.5359 72.4677C59.2707 72.0976 59.1161 71.6638 59.0795 71.1519L58.0821 71.2231C58.1307 71.9043 58.3419 72.5182 58.723 73.0501L59.5359 72.4677ZM58.5808 71.6875H59.9444V70.6875H58.5808V71.6875ZM59.4463 71.2304C59.4897 71.7343 59.6636 72.1819 59.9873 72.5436L60.7325 71.8768C60.5732 71.6988 60.4702 71.4646 60.4426 71.1446L59.4463 71.2304ZM59.9919 72.5488C60.2973 72.8807 60.6779 73.1224 61.1206 73.2784L61.4529 72.3352C61.1499 72.2285 60.9125 72.0724 60.7279 71.8717L59.9919 72.5488ZM61.126 73.2803C61.5586 73.4272 62.0182 73.4986 62.5012 73.4986V72.4986C62.1178 72.4986 61.7677 72.4421 61.4475 72.3334L61.126 73.2803ZM62.5012 73.4986C63.0597 73.4986 63.578 73.408 64.0481 73.2167L63.671 72.2905C63.3386 72.4258 62.9513 72.4986 62.5012 72.4986V73.4986ZM64.0516 73.2152C64.5188 73.0209 64.9097 72.7428 65.2044 72.3723L64.4217 71.7499C64.2476 71.9688 64.0029 72.1524 63.6675 72.2919L64.0516 73.2152ZM65.2062 72.37C65.5133 71.9791 65.6646 71.521 65.6646 71.017H64.6646C64.6646 71.3086 64.5815 71.5464 64.4199 71.7522L65.2062 72.37ZM65.6646 71.017C65.6646 70.5568 65.5333 70.1359 65.2344 69.8003L64.4876 70.4654C64.5935 70.5842 64.6646 70.7529 64.6646 71.017H65.6646ZM65.2344 69.8003C64.9753 69.5094 64.6449 69.2853 64.2595 69.1195L63.8644 70.0382C64.1395 70.1565 64.3418 70.3017 64.4876 70.4654L65.2344 69.8003ZM64.2595 69.1195C63.9065 68.9677 63.5281 68.8361 63.1251 68.7242L62.8575 69.6877C63.2215 69.7889 63.5569 69.9059 63.8644 70.0382L64.2595 69.1195ZM63.1287 68.7252L61.7863 68.3417L61.5116 69.3032L62.8539 69.6867L63.1287 68.7252ZM61.7871 68.3419C60.9865 68.1117 60.3874 67.7928 59.9622 67.4041L59.2874 68.1421C59.8566 68.6625 60.6069 69.0431 61.5108 69.303L61.7871 68.3419ZM59.9622 67.4041C59.5788 67.0535 59.3791 66.5977 59.3791 65.9886H58.3791C58.3791 66.8498 58.6766 67.5836 59.2874 68.1421L59.9622 67.4041ZM59.3791 65.9886C59.3791 65.4737 59.5163 65.0461 59.779 64.6845L58.97 64.0967C58.5722 64.6442 58.3791 65.282 58.3791 65.9886H59.3791ZM59.7786 64.6851C60.0569 64.3032 60.433 64.001 60.9217 63.7814L60.5119 62.8692C59.8784 63.1539 59.3597 63.5619 58.9704 64.0962L59.7786 64.6851ZM60.9231 63.7808C61.4153 63.5578 61.9741 63.4418 62.6078 63.4418V62.4418C61.8494 62.4418 61.1475 62.5814 60.5105 62.8698L60.9231 63.7808ZM62.6078 63.4418C63.2506 63.4418 63.8023 63.5568 64.2734 63.774L64.6921 62.8659C64.0695 62.5788 63.3712 62.4418 62.6078 62.4418V63.4418ZM64.2759 63.7751C64.7543 63.9926 65.1168 64.2825 65.3801 64.6395L66.1849 64.0459C65.809 63.5364 65.305 63.1445 64.6897 62.8648L64.2759 63.7751ZM65.3817 64.6416C65.6425 64.9913 65.7796 65.384 65.7941 65.8343L66.7936 65.8021C66.7726 65.1515 66.5688 64.5606 66.1833 64.0437L65.3817 64.6416ZM66.2939 65.3182H65.0154V66.3182H66.2939V65.3182ZM69.936 63.0909H70.436V62.5909H69.936V63.0909ZM69.936 74V74.5H70.436V74H69.936ZM68.615 74H68.115V74.5H68.615V74ZM68.615 63.0909V62.5909H68.115V63.0909H68.615ZM69.436 63.0909V74H70.436V63.0909H69.436ZM69.936 73.5H68.615V74.5H69.936V73.5ZM69.115 74V63.0909H68.115V74H69.115ZM68.615 63.5909H69.936V62.5909H68.615V63.5909ZM72.5847 63.0909V62.5909H72.0847V63.0909H72.5847ZM74.1614 63.0909L74.6241 62.9015L74.497 62.5909H74.1614V63.0909ZM77.8688 72.1463L77.4061 72.3358L77.5332 72.6463H77.8688V72.1463ZM77.9966 72.1463V72.6463H78.3322L78.4593 72.3358L77.9966 72.1463ZM81.704 63.0909V62.5909H81.3684L81.2413 62.9015L81.704 63.0909ZM83.2807 63.0909H83.7807V62.5909H83.2807V63.0909ZM83.2807 74V74.5H83.7807V74H83.2807ZM82.0449 74H81.5449V74.5H82.0449V74ZM82.0449 65.7116H82.5449V65.2116H82.0449V65.7116ZM81.9384 65.7116V65.2116H81.6034L81.476 65.5215L81.9384 65.7116ZM78.5293 74V74.5H78.8643L78.9917 74.1902L78.5293 74ZM77.3361 74L76.8737 74.1902L77.0011 74.5H77.3361V74ZM73.927 65.7116L74.3894 65.5215L74.262 65.2116H73.927V65.7116ZM73.8205 65.7116V65.2116H73.3205V65.7116H73.8205ZM73.8205 74V74.5H74.3205V74H73.8205ZM72.5847 74H72.0847V74.5H72.5847V74ZM72.5847 63.5909H74.1614V62.5909H72.5847V63.5909ZM73.6987 63.2804L77.4061 72.3358L78.3315 71.9569L74.6241 62.9015L73.6987 63.2804ZM77.8688 72.6463H77.9966V71.6463H77.8688V72.6463ZM78.4593 72.3358L82.1667 63.2804L81.2413 62.9015L77.5339 71.9569L78.4593 72.3358ZM81.704 63.5909H83.2807V62.5909H81.704V63.5909ZM82.7807 63.0909V74H83.7807V63.0909H82.7807ZM83.2807 73.5H82.0449V74.5H83.2807V73.5ZM82.5449 74V65.7116H81.5449V74H82.5449ZM82.0449 65.2116H81.9384V66.2116H82.0449V65.2116ZM81.476 65.5215L78.0669 73.8098L78.9917 74.1902L82.4008 65.9018L81.476 65.5215ZM78.5293 73.5H77.3361V74.5H78.5293V73.5ZM77.7985 73.8098L74.3894 65.5215L73.4646 65.9018L76.8737 74.1902L77.7985 73.8098ZM73.927 65.2116H73.8205V66.2116H73.927V65.2116ZM73.3205 65.7116V74H74.3205V65.7116H73.3205ZM73.8205 73.5H72.5847V74.5H73.8205V73.5ZM73.0847 74V63.0909H72.0847V74H73.0847ZM85.9294 74H85.4294V74.5H85.9294V74ZM85.9294 63.0909V62.5909H85.4294V63.0909H85.9294ZM91.7142 63.5543L91.4671 63.989L91.4704 63.9909L91.7142 63.5543ZM92.9287 64.7955L92.4821 65.0203L92.4821 65.0203L92.9287 64.7955ZM92.9287 68.2951L92.4815 68.0715L92.4803 68.0739L92.9287 68.2951ZM91.7249 69.5522L91.972 69.9869L91.9742 69.9856L91.7249 69.5522ZM86.9948 70.0156H86.4948V70.5156H86.9948V70.0156ZM86.9948 68.8438V68.3438H86.4948V68.8438H86.9948ZM91.0058 68.5401L90.7582 68.1057L90.7582 68.1057L91.0058 68.5401ZM91.7781 67.7198L91.3255 67.5074L91.3246 67.5094L91.7781 67.7198ZM91.7781 65.3707L91.3246 65.5812L91.3264 65.585L91.7781 65.3707ZM91.0004 64.5611L90.758 64.9984L90.7613 65.0002L91.0004 64.5611ZM87.2504 64.2628V63.7628H86.7504V64.2628H87.2504ZM87.2504 74V74.5H87.7504V74H87.2504ZM86.4294 74V63.0909H85.4294V74H86.4294ZM85.9294 63.5909H89.6155V62.5909H85.9294V63.5909ZM89.6155 63.5909C90.4153 63.5909 91.0218 63.7358 91.4671 63.989L91.9614 63.1197C91.32 62.755 90.5274 62.5909 89.6155 62.5909V63.5909ZM91.4704 63.9909C91.9366 64.2512 92.2675 64.594 92.4821 65.0203L93.3753 64.5706C93.0643 63.9529 92.5855 63.4682 91.958 63.1178L91.4704 63.9909ZM92.4821 65.0203C92.7064 65.4658 92.8229 65.97 92.8229 66.5426H93.8229C93.8229 65.8297 93.6766 65.1691 93.3753 64.5706L92.4821 65.0203ZM92.8229 66.5426C92.8229 67.1152 92.7064 67.6217 92.4815 68.0715L93.3759 68.5187C93.6766 67.9174 93.8229 67.2556 93.8229 66.5426H92.8229ZM92.4803 68.0739C92.268 68.5043 91.9392 68.8521 91.4756 69.1188L91.9742 69.9856C92.5972 69.6273 93.0709 69.1371 93.3771 68.5163L92.4803 68.0739ZM91.4777 69.1176C91.0319 69.371 90.4286 69.5156 89.6368 69.5156V70.5156C90.5424 70.5156 91.3312 70.3513 91.972 69.9868L91.4777 69.1176ZM89.6368 69.5156H86.9948V70.5156H89.6368V69.5156ZM87.4948 70.0156V68.8438H86.4948V70.0156H87.4948ZM86.9948 69.3438H89.5942V68.3438H86.9948V69.3438ZM89.5942 69.3438C90.2315 69.3438 90.7971 69.2346 91.2534 68.9745L90.7582 68.1057C90.5042 68.2505 90.1287 68.3438 89.5942 68.3438V69.3438ZM91.2534 68.9745C91.6915 68.7248 92.0248 68.3763 92.2317 67.9302L91.3246 67.5094C91.2119 67.7523 91.0303 67.9506 90.7582 68.1057L91.2534 68.9745ZM92.2308 67.9323C92.4293 67.5093 92.5232 67.0428 92.5232 66.5426H91.5232C91.5232 66.916 91.4537 67.2343 91.3255 67.5074L92.2308 67.9323ZM92.5232 66.5426C92.5232 66.0425 92.4293 65.577 92.2299 65.1565L91.3264 65.585C91.4536 65.8534 91.5232 66.1691 91.5232 66.5426H92.5232ZM92.2317 65.1603C92.0233 64.7111 91.6848 64.3644 91.2396 64.122L90.7613 65.0002C91.0334 65.1483 91.2134 65.3415 91.3246 65.5812L92.2317 65.1603ZM91.2429 64.1238C90.7843 63.8695 90.2154 63.7628 89.5729 63.7628V64.7628C90.1165 64.7628 90.4993 64.8549 90.758 64.9984L91.2429 64.1238ZM89.5729 63.7628H87.2504V64.7628H89.5729V63.7628ZM86.7504 64.2628V74H87.7504V64.2628H86.7504ZM87.2504 73.5H85.9294V74.5H87.2504V73.5ZM95.4509 74H94.9509V74.5H95.4509V74ZM95.4509 63.0909V62.5909H94.9509V63.0909H95.4509ZM96.7719 63.0909H97.2719V62.5909H96.7719V63.0909ZM96.7719 72.8281H96.2719V73.3281H96.7719V72.8281ZM101.843 72.8281H102.343V72.3281H101.843V72.8281ZM101.843 74V74.5H102.343V74H101.843ZM95.9509 74V63.0909H94.9509V74H95.9509ZM95.4509 63.5909H96.7719V62.5909H95.4509V63.5909ZM96.2719 63.0909V72.8281H97.2719V63.0909H96.2719ZM96.7719 73.3281H101.843V72.3281H96.7719V73.3281ZM101.343 72.8281V74H102.343V72.8281H101.343ZM101.843 73.5H95.4509V74.5H101.843V73.5ZM103.888 74H103.388V74.5H103.888V74ZM103.888 63.0909V62.5909H103.388V63.0909H103.888ZM110.472 63.0909H110.972V62.5909H110.472V63.0909ZM110.472 64.2628V64.7628H110.972V64.2628H110.472ZM105.209 64.2628V63.7628H104.709V64.2628H105.209ZM105.209 67.9489H104.709V68.4489H105.209V67.9489ZM110.131 67.9489H110.631V67.4489H110.131V67.9489ZM110.131 69.1207V69.6207H110.631V69.1207H110.131ZM105.209 69.1207V68.6207H104.709V69.1207H105.209ZM105.209 72.8281H104.709V73.3281H105.209V72.8281ZM110.557 72.8281H111.057V72.3281H110.557V72.8281ZM110.557 74V74.5H111.057V74H110.557ZM104.388 74V63.0909H103.388V74H104.388ZM103.888 63.5909H110.472V62.5909H103.888V63.5909ZM109.972 63.0909V64.2628H110.972V63.0909H109.972ZM110.472 63.7628H105.209V64.7628H110.472V63.7628ZM104.709 64.2628V67.9489H105.709V64.2628H104.709ZM105.209 68.4489H110.131V67.4489H105.209V68.4489ZM109.631 67.9489V69.1207H110.631V67.9489H109.631ZM110.131 68.6207H105.209V69.6207H110.131V68.6207ZM104.709 69.1207V72.8281H105.709V69.1207H104.709ZM105.209 73.3281H110.557V72.3281H105.209V73.3281ZM110.057 72.8281V74H111.057V72.8281H110.057ZM110.557 73.5H103.888V74.5H110.557V73.5Z" fill="black"/>
</g>
<defs>
<filter id="filter0_bd_1_5" x="0" y="-4" width="126" height="135" filterUnits="userSpaceOnUse" color-interpolation-filters="sRGB">
<feFlood flood-opacity="0" result="BackgroundImageFix"/>
<feGaussianBlur in="BackgroundImageFix" stdDeviation="2"/>
<feComposite in2="SourceAlpha" operator="in" result="effect1_backgroundBlur_1_5"/>
<feColorMatrix in="SourceAlpha" type="matrix" values="0 0 0 0 0 0 0 0 0 0 0 0 0 0 0 0 0 0 127 0" result="hardAlpha"/>
<feOffset dy="4"/>
<feGaussianBlur stdDeviation="2"/>
<feComposite in2="hardAlpha" operator="out"/>
<feColorMatrix type="matrix" values="0 0 0 0 0 0 0 0 0 0 0 0 0 0 0 0 0 0 0.25 0"/>
<feBlend mode="normal" in2="effect1_backgroundBlur_1_5" result="effect2_dropShadow_1_5"/>
<feBlend mode="normal" in="SourceGraphic" in2="effect2_dropShadow_1_5" result="shape"/>
</filter>
<filter id="filter1_b_1_5" x="11.8513" y="41.0909" width="102.706" height="37.1009" filterUnits="userSpaceOnUse" color-interpolation-filters="sRGB">
<feFlood flood-opacity="0" result="BackgroundImageFix"/>
<feGaussianBlur in="BackgroundImageFix" stdDeviation="2"/>
<feComposite in2="SourceAlpha" operator="in" result="effect1_backgroundBlur_1_5"/>
<feBlend mode="normal" in="SourceGraphic" in2="effect1_backgroundBlur_1_5" result="shape"/>
</filter>
</defs>
</svg>
